# xmcd CD database file
#
# Track frame offsets:
#	150
#	21637
#	41185
#	60930
#	82136
#	102676
#	123396
#	143915
#	161705
#	183011
#	206071
#	225094
#	244228
#	263180
#
# Disc length: 3761 seconds
#
# Revision: 2
# Processed by: cddbd v1.4b41PL1 Copyright (c) Steve Scherf et al.
# Submitted via: Feurio! 1.50.2ß - http://www.feurio.com
#
DISCID=c70eaf0e
DTITLE=Various Artist - Daborah Cox (One Wish)
DYEAR=1900
DGENRE=
TTITLE0=Deborah Cox (One Wish) - Track: 1
TTITLE1=Deborah Cox (One Wish) - Track: 2
TTITLE2=Deborah Cox (One Wish) - Track: 3
TTITLE3=Deborah Cox (One Wish) - Track: 4
TTITLE4=Deborah Cox (One Wish) - Track: 5
TTITLE5=Deborah Cox (One Wish) - Track: 6
TTITLE6=Deborah Cox (One Wish) - Track: 7
TTITLE7=Deborah Cox (One Wish) - Track: 8
TTITLE8=Deborah Cox (One Wish) - Track: 9
TTITLE9=Deborah Cox (One Wish) - Track: 10
TTITLE10=Deborah Cox (One Wish) - Track: 11
TTITLE11=Deborah Cox (One Wish) - Track: 12
TTITLE12=Deborah Cox (One Wish) - Track: 13
TTITLE13=Deborah Cox (One Wish) - Track: 14
EXTD=
EXTT0=
EXTT1=
EXTT2=
EXTT3=
EXTT4=
EXTT5=
EXTT6=
EXTT7=
EXTT8=
EXTT9=
EXTT10=
EXTT11=
EXTT12=
EXTT13=
PLAYORDER=
